<mxfile host="app.diagrams.net" modified="2021-03-04T08:36:41.037Z" agent="5.0 (Macintosh; Intel Mac OS X 11_2_0) AppleWebKit/537.36 (KHTML, like Gecko) Chrome/88.0.4324.192 Safari/537.36" etag="cUQTgss8Kt_9g3LwFjBn" version="14.4.3" type="github">
  <diagram id="C5RBs43oDa-KdzZeNtuy" name="Page-1">
    <mxGraphModel dx="1426" dy="665" grid="1" gridSize="10" guides="1" tooltips="1" connect="1" arrows="1" fold="1" page="1" pageScale="1" pageWidth="827" pageHeight="1169" math="0" shadow="0">
      <root>
        <mxCell id="WIyWlLk6GJQsqaUBKTNV-0" />
        <mxCell id="WIyWlLk6GJQsqaUBKTNV-1" parent="WIyWlLk6GJQsqaUBKTNV-0" />
        <mxCell id="4QeGhvoCqp_1l1T2t_zY-0" value="调用算法模型库" style="rounded=1;" vertex="1" parent="WIyWlLk6GJQsqaUBKTNV-1">
          <mxGeometry x="105" y="110" width="110" height="40" as="geometry" />
        </mxCell>
        <mxCell id="4QeGhvoCqp_1l1T2t_zY-1" value="模型选择" style="rounded=0;" vertex="1" parent="WIyWlLk6GJQsqaUBKTNV-1">
          <mxGeometry x="120" y="190" width="80" height="40" as="geometry" />
        </mxCell>
        <mxCell id="4QeGhvoCqp_1l1T2t_zY-2" value="是否训练" style="rhombus;" vertex="1" parent="WIyWlLk6GJQsqaUBKTNV-1">
          <mxGeometry x="230" y="175" width="110" height="70" as="geometry" />
        </mxCell>
        <mxCell id="4QeGhvoCqp_1l1T2t_zY-4" value="调用算法" style="rounded=0;" vertex="1" parent="WIyWlLk6GJQsqaUBKTNV-1">
          <mxGeometry x="245" y="270" width="80" height="40" as="geometry" />
        </mxCell>
        <mxCell id="4QeGhvoCqp_1l1T2t_zY-5" value="加载模型" style="rounded=0;" vertex="1" parent="WIyWlLk6GJQsqaUBKTNV-1">
          <mxGeometry x="373.5" y="190" width="80" height="40" as="geometry" />
        </mxCell>
        <mxCell id="4QeGhvoCqp_1l1T2t_zY-7" value="已有&#xa;算法" style="shape=cylinder3;boundedLbl=1;backgroundOutline=1;size=15;" vertex="1" parent="WIyWlLk6GJQsqaUBKTNV-1">
          <mxGeometry x="120" y="255" width="60" height="70" as="geometry" />
        </mxCell>
        <mxCell id="4QeGhvoCqp_1l1T2t_zY-8" value="已有&#xa;模型" style="shape=cylinder3;boundedLbl=1;backgroundOutline=1;size=15;" vertex="1" parent="WIyWlLk6GJQsqaUBKTNV-1">
          <mxGeometry x="384" y="90" width="60" height="70" as="geometry" />
        </mxCell>
        <mxCell id="4QeGhvoCqp_1l1T2t_zY-9" value="攻防博弈训练" style="rounded=1;" vertex="1" parent="WIyWlLk6GJQsqaUBKTNV-1">
          <mxGeometry x="230" y="350" width="110" height="40" as="geometry" />
        </mxCell>
        <mxCell id="4QeGhvoCqp_1l1T2t_zY-10" value="攻防博弈对抗" style="rounded=1;" vertex="1" parent="WIyWlLk6GJQsqaUBKTNV-1">
          <mxGeometry x="500" y="190" width="110" height="40" as="geometry" />
        </mxCell>
        <mxCell id="4QeGhvoCqp_1l1T2t_zY-11" value="" style="endArrow=classic;exitX=0.5;exitY=1;exitDx=0;exitDy=0;entryX=0.5;entryY=0;entryDx=0;entryDy=0;" edge="1" parent="WIyWlLk6GJQsqaUBKTNV-1" source="4QeGhvoCqp_1l1T2t_zY-0" target="4QeGhvoCqp_1l1T2t_zY-1">
          <mxGeometry width="50" height="50" relative="1" as="geometry">
            <mxPoint x="150" y="430" as="sourcePoint" />
            <mxPoint x="200" y="380" as="targetPoint" />
          </mxGeometry>
        </mxCell>
        <mxCell id="4QeGhvoCqp_1l1T2t_zY-12" value="" style="endArrow=classic;exitX=1;exitY=0.5;exitDx=0;exitDy=0;entryX=0;entryY=0.5;entryDx=0;entryDy=0;" edge="1" parent="WIyWlLk6GJQsqaUBKTNV-1" source="4QeGhvoCqp_1l1T2t_zY-1" target="4QeGhvoCqp_1l1T2t_zY-2">
          <mxGeometry width="50" height="50" relative="1" as="geometry">
            <mxPoint x="170" y="160" as="sourcePoint" />
            <mxPoint x="170" y="200" as="targetPoint" />
          </mxGeometry>
        </mxCell>
        <mxCell id="4QeGhvoCqp_1l1T2t_zY-13" value="" style="endArrow=classic;exitX=0.5;exitY=1;exitDx=0;exitDy=0;entryX=0.5;entryY=0;entryDx=0;entryDy=0;" edge="1" parent="WIyWlLk6GJQsqaUBKTNV-1" source="4QeGhvoCqp_1l1T2t_zY-2" target="4QeGhvoCqp_1l1T2t_zY-4">
          <mxGeometry width="50" height="50" relative="1" as="geometry">
            <mxPoint x="180" y="170" as="sourcePoint" />
            <mxPoint x="180" y="210" as="targetPoint" />
          </mxGeometry>
        </mxCell>
        <mxCell id="4QeGhvoCqp_1l1T2t_zY-14" value="是" style="edgeLabel;align=center;verticalAlign=middle;resizable=0;points=[];" vertex="1" connectable="0" parent="4QeGhvoCqp_1l1T2t_zY-13">
          <mxGeometry x="-0.2166" relative="1" as="geometry">
            <mxPoint x="15" y="0.16000000000000003" as="offset" />
          </mxGeometry>
        </mxCell>
        <mxCell id="4QeGhvoCqp_1l1T2t_zY-15" value="" style="endArrow=classic;exitX=1;exitY=0.5;exitDx=0;exitDy=0;entryX=0;entryY=0.5;entryDx=0;entryDy=0;" edge="1" parent="WIyWlLk6GJQsqaUBKTNV-1" source="4QeGhvoCqp_1l1T2t_zY-2" target="4QeGhvoCqp_1l1T2t_zY-5">
          <mxGeometry width="50" height="50" relative="1" as="geometry">
            <mxPoint x="295" y="255" as="sourcePoint" />
            <mxPoint x="295" y="280" as="targetPoint" />
          </mxGeometry>
        </mxCell>
        <mxCell id="4QeGhvoCqp_1l1T2t_zY-16" value="否" style="edgeLabel;align=center;verticalAlign=middle;resizable=0;points=[];" vertex="1" connectable="0" parent="4QeGhvoCqp_1l1T2t_zY-15">
          <mxGeometry x="-0.2166" relative="1" as="geometry">
            <mxPoint x="-3.0700000000000003" y="-10" as="offset" />
          </mxGeometry>
        </mxCell>
        <mxCell id="4QeGhvoCqp_1l1T2t_zY-17" value="" style="endArrow=classic;exitX=1;exitY=0.5;exitDx=0;exitDy=0;entryX=0;entryY=0.5;entryDx=0;entryDy=0;" edge="1" parent="WIyWlLk6GJQsqaUBKTNV-1" target="4QeGhvoCqp_1l1T2t_zY-10">
          <mxGeometry width="50" height="50" relative="1" as="geometry">
            <mxPoint x="453.5" y="209.8" as="sourcePoint" />
            <mxPoint x="483.5" y="209.8" as="targetPoint" />
          </mxGeometry>
        </mxCell>
        <mxCell id="4QeGhvoCqp_1l1T2t_zY-18" value="" style="endArrow=classic;exitX=0.5;exitY=1;exitDx=0;exitDy=0;entryX=0.5;entryY=0;entryDx=0;entryDy=0;" edge="1" parent="WIyWlLk6GJQsqaUBKTNV-1" source="4QeGhvoCqp_1l1T2t_zY-4" target="4QeGhvoCqp_1l1T2t_zY-9">
          <mxGeometry width="50" height="50" relative="1" as="geometry">
            <mxPoint x="220" y="230" as="sourcePoint" />
            <mxPoint x="250" y="230" as="targetPoint" />
          </mxGeometry>
        </mxCell>
        <mxCell id="4QeGhvoCqp_1l1T2t_zY-19" value="" style="endArrow=classic;exitX=1;exitY=0.5;exitDx=0;exitDy=0;entryX=0;entryY=0.5;entryDx=0;entryDy=0;exitPerimeter=0;" edge="1" parent="WIyWlLk6GJQsqaUBKTNV-1" source="4QeGhvoCqp_1l1T2t_zY-7" target="4QeGhvoCqp_1l1T2t_zY-4">
          <mxGeometry width="50" height="50" relative="1" as="geometry">
            <mxPoint x="230" y="240" as="sourcePoint" />
            <mxPoint x="260" y="240" as="targetPoint" />
          </mxGeometry>
        </mxCell>
        <mxCell id="4QeGhvoCqp_1l1T2t_zY-20" value="" style="endArrow=classic;exitX=0.5;exitY=1;exitDx=0;exitDy=0;entryX=0.5;entryY=0;entryDx=0;entryDy=0;exitPerimeter=0;" edge="1" parent="WIyWlLk6GJQsqaUBKTNV-1" source="4QeGhvoCqp_1l1T2t_zY-8" target="4QeGhvoCqp_1l1T2t_zY-5">
          <mxGeometry width="50" height="50" relative="1" as="geometry">
            <mxPoint x="170" y="160" as="sourcePoint" />
            <mxPoint x="170" y="200" as="targetPoint" />
          </mxGeometry>
        </mxCell>
      </root>
    </mxGraphModel>
  </diagram>
</mxfile>
